<?xml version="1.0" encoding="UTF-8"?>
<svg id="OFFICIAL" xmlns="http://www.w3.org/2000/svg" xmlns:xlink="http://www.w3.org/1999/xlink" viewBox="0 0 95.58 143.39">
  <defs>
    <style>
      .cls-1 {
        fill: url(#linear-gradient-2);
      }

      .cls-2 {
        fill: url(#linear-gradient);
      }
    </style>
    <linearGradient id="linear-gradient" x1="70.97" y1="25.85" x2="71.29" y2="84.57" gradientUnits="userSpaceOnUse">
      <stop offset="0" stop-color="#761113"/>
      <stop offset=".48" stop-color="#771113"/>
      <stop offset=".65" stop-color="#7e1215"/>
      <stop offset=".77" stop-color="#8a1518"/>
      <stop offset=".87" stop-color="#9b181c"/>
      <stop offset=".95" stop-color="#b11d21"/>
      <stop offset="1" stop-color="#c12126"/>
    </linearGradient>
    <linearGradient id="linear-gradient-2" x1="65.43" y1="131.65" x2="22.51" y2="13.72" gradientUnits="userSpaceOnUse">
      <stop offset="0" stop-color="#761113"/>
      <stop offset="1" stop-color="#c12126"/>
    </linearGradient>
  </defs>
  <path class="cls-2" d="M95.58,43.86c0,1.44-.13,2.89-.4,4.33-.77,4.08-3.08,7.5-6.43,9.5l-41.81,25.03-.17.1s.08-.08.17-.17c.25-.24.77-.76,1.5-1.49l1.65-1.64c9.45-9.38,35.71-35.49,35.71-35.49,2.75-2.76,4.17-6.64,3.92-10.78-.15-2.6-.75-5.12-1.71-7.49,4.72,4.77,7.57,11.37,7.57,18.1Z"/>
  <path class="cls-1" d="M85.8,44.03s-26.26,26.11-35.71,35.49l-1.65,1.64c-.73.73-1.25,1.25-1.5,1.49-.09.09-.15.15-.17.17l.17-.1-.04,46.53c0,1.92-.43,3.8-1.23,5.54-.81,1.75-1.88,3.5-3.51,4.7-7.9,5.79-26.01,4.57-32.43,0l-1.12-1c-2.98-2.66-4.65-6.27-4.65-10.04V35.72c0-.27.01-.54.03-.81-.04-.67-.04-1.34.02-2.03l.05-.55c.49-6.05,3.35-11.63,7.6-15.79,4.24-4.16,9.87-6.9,15.91-7.25,4.15-.25,8.02,1.17,10.78,3.92l8.57,8.57,8.23-8.24c2.8-2.8,6.77-4.19,10.98-3.85l.55.05c6.05.49,11.63,3.35,15.79,7.59,2,2.05,3.68,4.42,4.92,7,.16.35.32.7.47,1.05.05.13.11.25.15.38.96,2.37,1.56,4.89,1.71,7.49.25,4.14-1.17,8.02-3.92,10.78Z"/>
</svg>